<?xml version="1.0" encoding="utf-8"?>
<!-- Generator: Adobe Illustrator 16.0.0, SVG Export Plug-In . SVG Version: 6.00 Build 0)  -->
<!DOCTYPE svg PUBLIC "-//W3C//DTD SVG 1.1//EN" "http://www.w3.org/Graphics/SVG/1.1/DTD/svg11.dtd">
<svg version="1.1" id="Layer_1" xmlns="http://www.w3.org/2000/svg" xmlns:xlink="http://www.w3.org/1999/xlink" x="0px" y="0px"
	 width="160.507px" height="136.171px" viewBox="-33.279 0 160.507 136.171" enable-background="new -33.279 0 160.507 136.171"
	 xml:space="preserve">
<ellipse fill-rule="evenodd" clip-rule="evenodd" fill="#1E9C12" cx="56.245" cy="53.707" rx="39.885" ry="23.563"/>
<g>
	<path fill-rule="evenodd" clip-rule="evenodd" fill="#FAFAFA" d="M110.941,50.785c-0.789-3.43-1.865-6.773-3.321-9.985
		c-0.993-2.573-2.393-4.938-3.722-7.342c-1.733-3.137-3.824-6.04-6.078-8.799C91.804,17.293,84.46,11.553,75.881,7.45
		C63.395,1.479,50.274-0.358,36.656,1.988C21.608,4.58,9.027,11.736-1.146,23.119c-2.48,2.776-4.664,5.777-6.624,8.943
		c-2.611,4.22-4.743,8.662-6.237,13.401c-2,5.742-3.048,11.67-3.315,17.732c-0.391,8.861,0.937,17.465,4.048,25.779
		c1.292,3.451,2.847,6.783,4.753,9.943c0.354,0.586,0.42,1.078,0.19,1.73c-0.789,2.256-1.509,4.535-2.256,6.807
		c-0.336,0.941-0.687,1.879-1.006,2.826c-1.996,5.928-3.984,11.857-5.975,17.787c-0.729,2.168-1.458,4.338-2.215,6.596
		c0.244-0.066,0.399-0.102,0.55-0.15c11.604-3.721,23.209-7.439,34.809-11.174c0.472-0.152,0.839-0.123,1.273,0.115
		c2.776,1.521,5.658,2.814,8.638,3.887c10.691,3.848,21.647,4.844,32.855,3.018c9.985-1.629,19.084-5.426,27.292-11.33
		c5.702-4.102,10.664-8.953,14.718-14.715c1.025-1.457,2.134-2.859,2.968-4.445c0.096-0.133,0.203-0.262,0.285-0.402
		C112.491,84.211,114.896,67.973,110.941,50.785z M84.271,106.801c-1.558,1.32-3.186,2.557-4.787,3.826
		c-0.047,0.037-0.139,0.018-0.21,0.023l0.01-0.012c-0.145,0.152-0.203,0.393-0.45,0.439c-1.571,1.203-3.295,2.152-5.025,3.105
		c-5.156,2.846-10.614,4.832-16.415,5.822c-13.934,2.379-26.923-0.137-38.919-7.637c-0.661-0.412-1.216-0.479-1.934-0.236
		c-2.445,0.826-4.894,1.646-7.368,2.381c-2.133,0.631-4.197,1.479-6.362,2.008c-2.034,0.676-4.068,1.352-6.233,2.07
		c1.013-3.201,1.962-6.289,3.13-9.307c0.166-0.563,0.332-1.125,0.498-1.686c0.305-0.814,0.61-1.631,0.916-2.445
		c0.588-2.172,1.36-4.285,2.108-6.406c0.135-0.381,0.108-0.646-0.128-0.971c-1.296-1.77-2.467-3.623-3.479-5.57
		c-0.897-1.543-1.671-3.146-2.355-4.791c-1.917-4.609-3.231-9.383-3.846-14.346c-0.989-7.984-0.316-15.82,2.123-23.494
		c0.425-1.34,0.922-2.656,1.385-3.984c0.622-1.373,1.208-2.762,1.874-4.113c0.526-1.066,1.149-2.085,1.729-3.125
		c3.157-5.282,7.085-9.908,11.745-13.927c0.89-0.768,1.809-1.513,2.722-2.239c0.6-0.478,1.258-1.044,2.059-1.281
		c1.071-0.927,2.307-1.606,3.527-2.299c7.226-4.104,14.972-6.495,23.277-7.067c6.748-0.465,13.366,0.236,19.818,2.259
		c1.993,0.625,3.935,1.429,5.871,2.233c3.319,1.378,6.42,3.132,9.37,5.168c0.543,0.375,1.041,0.8,1.504,1.269
		c0.316,0.004,0.416,0.287,0.596,0.466c0.06-0.005,0.123-0.016,0.124,0.076c0.187,0.073,0.354,0.172,0.452,0.356
		c0.128,0.025,0.213,0.104,0.269,0.219c0.308,0.138,0.542,0.363,0.745,0.626L82.598,24.2c1.462,0.886,2.634,2.115,3.819,3.311
		c2.696,2.722,5.087,5.701,7.199,8.899c0.037,0.056,0.036,0.137,0.054,0.207c1.038,1.41,1.841,2.963,2.719,4.471
		c1.136,2.25,1.963,4.631,2.937,6.949c0.895,2.129,1.339,4.4,1.841,6.639c1.128,5.02,1.496,10.111,1.125,15.252
		c-0.147,2.033-0.312,4.076-0.778,6.055c-0.598,2.537-1.178,5.082-1.991,7.568c-0.846,2.582-2.012,5.018-3.138,7.475
		c-0.96,2.094-2.226,4.008-3.543,5.891c-0.092,0.131-0.212,0.242-0.318,0.365c-0.186,0.799-0.904,1.266-1.239,1.971
		C89.007,101.826,86.907,104.568,84.271,106.801z"/>
	<path fill-rule="evenodd" clip-rule="evenodd" fill="#1E9C12" d="M31.459,36.488c1.455,0.387,2.916,0.292,4.4,0.175
		c0.788-0.063,1.611,0.121,2.424,0.107c2.042-0.036,4.089-0.162,6.126-0.072c2.779,0.122,5.555,0.028,8.332,0.065
		c2.138,0.028,4.275,0.005,6.414,0.005c1.709,0,3.418,0,5.127,0c3.586,0,7.17,0,10.754,0c2.018,0,4.035-0.002,6.054,0.001
		c0.379,0.001,0.725,0.006,0.778-0.51c0.036-0.348,0.332-0.355,0.606-0.355c0.719,0.001,1.438,0.016,2.158-0.006
		c0.473-0.014,0.986,0.006,0.981-0.723c-0.002-0.353,0.332-0.268,0.557-0.276c1.636-0.065,1.482-0.103,1.906-1.748
		c0.438-1.698-0.442-2.817-1.27-4.006c-1.088-1.565-2.321-3.012-3.789-4.246c-0.208-0.175-0.484-0.346-0.422-0.7
		c1.462,0.886,2.634,2.115,3.819,3.311c2.696,2.722,5.087,5.701,7.199,8.899c0.037,0.056,0.036,0.137,0.054,0.207
		c-0.279,0.292,0.036,0.465,0.144,0.671c0.75,1.439,1.656,2.819,2.221,4.326c0.696,1.864,1.3,3.792,1.093,5.858
		c-0.064,0.635-0.726,0.939-0.706,1.584c0.006,0.178-0.097,0.369-0.18,0.539c-0.549,1.105-0.269,1.35-1.701,1.277
		c-0.434-0.023-0.697,0.119-0.741,0.57c-0.037,0.383-0.292,0.447-0.61,0.441c-0.384-0.006-0.769,0.014-1.152-0.004
		c-0.466-0.02-0.845,0.041-1.009,0.58c-0.122,0.404-0.511,0.283-0.805,0.285c-3.238,0.004-6.477,0.002-9.716,0.002
		c-1.768,0-3.534,0-5.302,0c-3.227,0-6.453,0-9.681,0c-4.07,0-8.141,0-12.211,0c-1.878,0-3.756,0-5.634,0
		c-1.859,0-3.725-0.086-5.576,0.035c-1.049,0.068-2.089-0.189-3.125,0.027c-0.239,0.049-0.283-0.053-0.319-0.25
		c-0.278-1.551-1.13-2.887-1.663-4.344c-0.802-2.197-1.743-4.346-2.671-6.495c-0.568-1.314-1.012-2.683-1.758-3.923
		C32.262,37.292,31.759,36.982,31.459,36.488z"/>
	<path fill-rule="evenodd" clip-rule="evenodd" fill="#1E9C12" d="M82.608,24.214c-0.478,0.066-0.728-0.142-0.745-0.625
		C82.171,23.726,82.405,23.951,82.608,24.214z"/>
	<path fill-rule="evenodd" clip-rule="evenodd" fill="#1E9C12" d="M81.019,22.937c-0.342,0.028-0.604-0.046-0.597-0.466
		C80.739,22.474,80.839,22.757,81.019,22.937z"/>
	<path fill-rule="evenodd" clip-rule="evenodd" fill="#1E9C12" d="M81.595,23.369c-0.264,0.025-0.471-0.022-0.452-0.356
		C81.329,23.085,81.496,23.184,81.595,23.369z"/>
	<path fill-rule="evenodd" clip-rule="evenodd" fill="#1E9C12" d="M79.273,110.65c-0.006-0.402,0.31-0.559,0.574-0.758
		c2.561-1.932,4.94-4.045,6.769-6.715c0.437-0.637,0.638-1.387,0.968-2.076c0.028-0.061,0.047-0.17,0.015-0.209
		c-0.576-0.684-0.187-1.535-0.397-2.287c-0.106-0.379-0.271-0.521-0.639-0.51c-0.358,0.012-0.718-0.002-1.077,0.002
		c-0.28,0.004-0.525-0.031-0.616-0.359c-0.117-0.426-0.437-0.516-0.835-0.508c-0.813,0.014-1.629,0-2.443,0.004
		c-0.318,0.002-0.501-0.057-0.391-0.459c0.146-0.529-0.211-0.688-0.645-0.688c-1.232,0-2.468,0.059-3.697,0.066
		c-0.922,0.004-1.855-0.064-2.785-0.066c-0.546-0.002-1.099-0.076-1.637,0.117c-0.171,0.061-0.385,0.063-0.521-0.131
		c1.179-0.775,2.538-1.223,3.69-2.055c1.754-1.268,3.456-2.596,4.438-4.584c0.758-1.533,0.965-3.23,1.229-4.902
		c0.104-0.658,0.201-1.316,0.309-1.975c0.026-0.16,0.173-0.318,0.078-0.48c-0.464-0.785,0.192-0.854,0.615-0.803
		c1.924,0.227,3.851-0.244,5.776,0.092c0.584,0.102,1.212-0.191,1.831,0.021c0.222,0.076,0.42,0.123,0.449,0.381
		c0.067,0.578,0.457,0.656,0.934,0.639c0.311-0.014,0.623,0.01,0.935-0.006c0.505-0.023,0.947-0.053,0.904,0.703
		c-0.026,0.445,0.422,0.436,0.757,0.451c1.016,0.043,1.424,0.443,1.522,1.461c0.058,0.588,0.069,1.201,0.607,1.619
		c0.15,0.115,0.096,0.309,0.109,0.471c0.159,1.816-0.354,3.484-1.015,5.15c-0.594,1.5-1.421,2.846-2.327,4.156
		c-0.188,0.271-0.306,0.537-0.236,0.867c-0.186,0.799-0.904,1.266-1.239,1.971c-2.276,2.574-4.376,5.316-7.013,7.549
		c-1.558,1.32-3.186,2.557-4.787,3.826C79.437,110.664,79.345,110.645,79.273,110.65z"/>
	<path fill-rule="evenodd" clip-rule="evenodd" fill="#1E9C12" d="M78.833,111.078c-0.039-0.342,0.101-0.498,0.45-0.439
		C79.139,110.791,79.08,111.031,78.833,111.078z"/>
	<g>
		<path fill-rule="evenodd" clip-rule="evenodd" fill="#1E9C12" d="M101.166,54.676c-0.502-2.238-0.946-4.51-1.841-6.639
			c-0.974-2.318-1.801-4.699-2.937-6.949c-0.878-1.507-1.681-3.061-2.719-4.471c-0.279,0.292,0.036,0.465,0.144,0.671
			c0.75,1.439,1.656,2.819,2.221,4.326c0.696,1.864,1.3,3.792,1.093,5.858c-0.064,0.635-0.726,0.939-0.706,1.584
			c0.006,0.178-0.097,0.369-0.18,0.539c-0.549,1.105-0.269,1.35-1.701,1.277c-0.434-0.023-0.697,0.119-0.741,0.57
			c-0.037,0.383-0.292,0.447-0.61,0.441c-0.384-0.006-0.769,0.014-1.152-0.004c-0.466-0.02-0.845,0.041-1.009,0.58
			c-0.122,0.404-0.511,0.283-0.805,0.285c-3.238,0.004-6.477,0.002-9.716,0.002c-1.768,0-3.534,0-5.302,0c-3.227,0-6.453,0-9.681,0
			c-4.07,0-8.141,0-12.211,0c-1.878,0-3.756,0-5.634,0c-1.859,0-3.725-0.086-5.576,0.035c-1.049,0.068-2.089-0.189-3.125,0.027
			c-0.239,0.049-0.283-0.053-0.319-0.25c-0.278-1.551-1.13-2.887-1.663-4.344c-0.802-2.197-1.743-4.346-2.671-6.495
			c-0.568-1.314-1.012-2.683-1.758-3.923c-0.305-0.507-0.809-0.817-1.108-1.311c1.455,0.387,2.916,0.292,4.4,0.175
			c0.788-0.063,1.611,0.121,2.424,0.107c2.042-0.036,4.089-0.162,6.126-0.072c2.779,0.122,5.555,0.028,8.332,0.065
			c2.138,0.028,4.275,0.005,6.414,0.005c1.709,0,3.418,0,5.127,0c3.586,0,7.17,0,10.754,0c2.018,0,4.035-0.002,6.054,0.001
			c0.379,0.001,0.725,0.006,0.778-0.51c0.036-0.348,0.332-0.355,0.606-0.355c0.719,0.001,1.438,0.016,2.158-0.006
			c0.473-0.014,0.986,0.006,0.981-0.723c-0.002-0.353,0.332-0.268,0.557-0.276c1.636-0.065,1.482-0.103,1.906-1.748
			c0.438-1.698-0.442-2.817-1.27-4.006c-1.088-1.565-2.321-3.012-3.789-4.246c-0.206-0.173-0.475-0.342-0.423-0.686
			c-0.47,0.061-0.716-0.147-0.733-0.626c-0.056-0.115-0.141-0.194-0.269-0.22c-0.264,0.025-0.471-0.022-0.452-0.356
			c-0.001-0.091-0.064-0.081-0.124-0.076c-0.342,0.028-0.604-0.046-0.597-0.466c-0.462-0.468-0.96-0.894-1.503-1.269
			c-2.95-2.037-6.051-3.79-9.37-5.168c-1.937-0.804-3.878-1.609-5.871-2.233c-6.452-2.022-13.07-2.724-19.818-2.259
			c-8.305,0.572-16.051,2.963-23.277,7.067c-1.22,0.693-2.456,1.373-3.527,2.299c-0.801,0.237-1.459,0.803-2.059,1.281
			c-0.913,0.726-1.832,1.471-2.722,2.239c-4.66,4.019-8.588,8.645-11.745,13.927c-0.58,1.04-1.204,2.059-1.729,3.125
			c-0.666,1.351-1.252,2.74-1.874,4.113c-0.463,1.328-0.96,2.645-1.385,3.984C-6.897,57.25-7.57,65.086-6.581,73.07
			c0.615,4.963,1.929,9.736,3.846,14.346c0.684,1.645,1.458,3.248,2.354,4.791c0.147-0.104,0.171-0.207,0.148-0.311
			C-0.209,92-0.233,92.104-0.38,92.207c1.012,1.947,2.183,3.801,3.479,5.57c0.237,0.324,0.263,0.59,0.128,0.971
			c-0.748,2.121-1.52,4.234-2.107,6.408c-0.306,0.813-0.611,1.629-0.916,2.443c-0.166,0.561-0.333,1.123-0.498,1.686
			c-1.168,3.018-2.118,6.105-3.13,9.307c2.165-0.719,4.2-1.395,6.233-2.07c2.165-0.529,4.229-1.377,6.362-2.008
			c2.474-0.734,4.923-1.555,7.368-2.381c0.718-0.242,1.273-0.176,1.934,0.236c11.996,7.5,24.986,10.016,38.919,7.637
			c5.801-0.99,11.259-2.977,16.415-5.822c1.73-0.953,3.454-1.902,5.025-3.105c-0.039-0.338,0.099-0.494,0.441-0.439
			c0.001-0.393,0.311-0.549,0.573-0.746c2.561-1.932,4.94-4.045,6.769-6.715c0.437-0.637,0.638-1.387,0.968-2.076
			c0.028-0.061,0.047-0.17,0.015-0.209c-0.576-0.684-0.187-1.535-0.397-2.287c-0.106-0.379-0.271-0.521-0.639-0.51
			c-0.358,0.012-0.718-0.002-1.077,0.002c-0.28,0.004-0.525-0.031-0.616-0.359c-0.117-0.426-0.437-0.516-0.835-0.508
			c-0.813,0.014-1.629,0-2.443,0.004c-0.318,0.002-0.501-0.057-0.391-0.459c0.146-0.529-0.211-0.688-0.645-0.688
			c-1.232,0-2.468,0.059-3.697,0.066c-0.922,0.004-1.855-0.064-2.785-0.066c-0.546-0.002-1.099-0.076-1.637,0.117
			c-0.171,0.061-0.385,0.063-0.521-0.131c1.179-0.775,2.538-1.223,3.69-2.055c1.754-1.268,3.456-2.596,4.438-4.584
			c0.758-1.533,0.965-3.23,1.229-4.902c0.104-0.658,0.201-1.316,0.309-1.975c0.026-0.16,0.173-0.318,0.078-0.48
			c-0.464-0.785,0.192-0.854,0.615-0.803c1.924,0.227,3.851-0.244,5.776,0.092c0.584,0.102,1.212-0.191,1.831,0.021
			c0.222,0.076,0.42,0.123,0.449,0.381c0.067,0.578,0.457,0.656,0.934,0.639c0.311-0.014,0.623,0.01,0.935-0.006
			c0.505-0.023,0.947-0.053,0.904,0.703c-0.026,0.445,0.422,0.436,0.757,0.451c1.016,0.043,1.424,0.443,1.522,1.461
			c0.058,0.588,0.069,1.201,0.607,1.619c0.15,0.115,0.096,0.309,0.109,0.471c0.159,1.816-0.354,3.484-1.015,5.15
			c-0.594,1.5-1.421,2.846-2.327,4.156c-0.188,0.271-0.306,0.537-0.236,0.867c0.106-0.123,0.227-0.234,0.318-0.365
			c1.317-1.883,2.583-3.797,3.543-5.891c1.126-2.457,2.292-4.893,3.138-7.475c0.813-2.486,1.394-5.031,1.991-7.568
			c0.467-1.979,0.631-4.021,0.778-6.055C102.662,64.787,102.294,59.695,101.166,54.676z M23.11,36.918
			c0.264-0.021,0.458-0.199,0.673-0.321C23.568,36.719,23.374,36.897,23.11,36.918c-1.379,1.032-2.573,2.212-3.584,3.536
			C20.537,39.13,21.731,37.95,23.11,36.918z M80.625,84.906c-0.198,1.027-0.543,2.012-0.745,3.025
			c-0.275,1.383-0.963,2.484-1.939,3.406c-3.929,3.705-8.552,5.68-14.016,5.301c-2.33-0.162-4.54-0.953-6.739-1.697
			c-3.529-1.191-7.054-2.41-10.408-4.041c-3.734-1.818-7.103-4.203-10.258-6.893c-0.654-0.559-1.275-1.156-1.911-1.734l0.007,0.008
			c-0.404-0.285-0.743-0.641-1.068-1.01c-0.617-0.287-0.978-0.873-1.39-1.348c-0.82-0.945-1.728-1.807-2.565-2.732
			c-2.568-2.846-4.729-5.99-6.944-9.1c-1.956-2.746-3.625-5.637-4.829-8.791c-1.345-3.525-1.854-7.133-1.128-10.871
			c0.502-3.42,2.099-6.299,4.384-8.834c0.417-0.462,0.839-0.924,1.296-1.344c1.082-0.994,2.361-1.526,3.841-1.542
			c1.15-0.012,2.3-0.015,3.449-0.039c1.11-0.023,1.842,0.564,2.391,1.45c0.737,1.188,1.192,2.506,1.688,3.798
			c0.734,1.914,1.524,3.8,2.346,5.675c0.057,0.129,0.086,0.27,0.129,0.404c0.569,1.311,1.16,2.611,1.7,3.932
			c0.463,1.133-0.045,2.125-0.625,3.043c-1.14,1.801-2.477,3.455-3.947,5.006c-0.801,0.846-0.847,1.664-0.201,2.758
			c2.437,4.129,5.368,7.855,8.92,11.096c1.65,1.508,3.372,2.918,5.273,4.07c1.612,0.979,3.28,1.883,5.021,2.635
			c0.261,0.113,0.506,0.26,0.759,0.391c0.638,0.271,1.274,0.541,1.911,0.814c1.464,0.631,2.189,0.477,3.25-0.688
			c0.112-0.123,0.234-0.236,0.353-0.354c1.623-2.039,3.345-3.998,4.861-6.123c0.519-0.729,1.279-0.949,2.168-0.734
			c1.125,0.273,2.162,0.768,3.194,1.264c3.489,1.682,6.968,3.385,10.449,5.08c0.301,0.148,0.605,0.287,0.839,0.539
			c0.428,0.221,0.62,0.609,0.653,1.051C80.875,82.826,80.828,83.855,80.625,84.906z"/>
		<path fill-rule="evenodd" clip-rule="evenodd" fill="#1E9C12" d="M82.598,24.2c-0.001,0.005,0,0.009-0.001,0.014
			c0.005,0,0.007,0,0.012,0L82.598,24.2z"/>
		<polygon fill-rule="evenodd" clip-rule="evenodd" fill="#1E9C12" points="79.283,110.639 79.274,110.639 79.273,110.65 		"/>
	</g>
	<path fill-rule="evenodd" clip-rule="evenodd" fill="#FAFAFA" d="M80.794,81.777c-0.033-0.441-0.226-0.83-0.653-1.051
		c-0.233-0.252-0.538-0.391-0.839-0.539c-3.481-1.695-6.96-3.398-10.449-5.08c-1.032-0.496-2.069-0.99-3.194-1.264
		c-0.889-0.215-1.649,0.006-2.168,0.734c-1.517,2.125-3.238,4.084-4.861,6.123c-0.118,0.117-0.24,0.23-0.353,0.354
		c-1.061,1.164-1.786,1.318-3.25,0.688c-0.637-0.273-1.273-0.543-1.911-0.814c-0.253-0.131-0.498-0.277-0.759-0.391
		c-1.741-0.752-3.409-1.656-5.021-2.635c-1.901-1.152-3.623-2.563-5.273-4.07c-3.552-3.24-6.483-6.967-8.92-11.096
		c-0.646-1.094-0.6-1.912,0.201-2.758c1.47-1.551,2.807-3.205,3.947-5.006c0.58-0.918,1.089-1.91,0.625-3.043
		c-0.54-1.32-1.131-2.621-1.7-3.932c-0.042-0.135-0.072-0.275-0.129-0.404c-0.822-1.875-1.612-3.762-2.346-5.675
		c-0.496-1.292-0.951-2.611-1.688-3.798c-0.549-0.886-1.281-1.473-2.391-1.45c-1.149,0.024-2.299,0.027-3.449,0.039
		c-1.48,0.017-2.76,0.549-3.841,1.542c-0.458,0.42-0.879,0.882-1.296,1.344c-2.285,2.535-3.882,5.414-4.384,8.834
		c-0.726,3.738-0.216,7.346,1.128,10.871c1.204,3.154,2.874,6.045,4.829,8.791c2.215,3.109,4.376,6.254,6.944,9.1
		c0.837,0.926,1.745,1.787,2.565,2.732c0.412,0.475,0.773,1.061,1.39,1.348c0.775,0,0.965,0.178,1.067,1
		c-0.002,0-0.004,0-0.006,0.002c0,0,0.007,0.008,0.008,0.008v-0.002c0.633,0.578,1.251,1.172,1.903,1.729
		c3.155,2.689,6.523,5.074,10.258,6.893c3.354,1.631,6.879,2.85,10.408,4.041c2.199,0.744,4.409,1.535,6.739,1.697
		c5.464,0.379,10.087-1.596,14.016-5.301c0.977-0.922,1.664-2.023,1.939-3.406c0.202-1.014,0.547-1.998,0.745-3.025
		C80.828,83.855,80.875,82.826,80.794,81.777z"/>
	<path fill-rule="evenodd" clip-rule="evenodd" fill="#FAFAFA" d="M33.548,81.271c0.778,0,0.967,0.178,1.068,1.01
		C34.211,81.996,33.873,81.641,33.548,81.271z"/>
</g>
</svg>
