<?xml version="1.0" encoding="utf-8"?>
<!-- Generator: Adobe Illustrator 16.0.0, SVG Export Plug-In . SVG Version: 6.00 Build 0)  -->
<!DOCTYPE svg PUBLIC "-//W3C//DTD SVG 1.1//EN" "http://www.w3.org/Graphics/SVG/1.1/DTD/svg11.dtd">
<svg version="1.1" id="Layer_1" xmlns="http://www.w3.org/2000/svg" xmlns:xlink="http://www.w3.org/1999/xlink" x="0px" y="0px"
	 width="564.467px" height="176.426px" viewBox="0 0 564.467 176.426" enable-background="new 0 0 564.467 176.426"
	 xml:space="preserve">
<g>
	<path fill="#1E9C12" d="M549.205,27.186H15.264c-6.416,0-11.615,5.201-11.615,11.615v40.828v17.597v40.828
		c0,6.414,5.201,11.612,11.615,11.612h533.941c6.412,0,11.613-5.199,11.613-11.612V97.225V79.628V38.801
		C560.818,32.387,555.617,27.186,549.205,27.186z"/>
	<g>
		<g>
			<path fill="#FFFFFF" d="M24.767,55.945c7.3,0,10.818,4.493,10.818,10.197c0,5.705-3.399,10.493-10.818,10.493H15.9V55.945H24.767
				z M21.693,71.699h3.074c3.724,0,5.024-2.778,5.024-5.616s-1.448-5.261-5.024-5.261h-3.074V71.699z"/>
			<path fill="#FFFFFF" d="M52.224,73.236h-9.251l-1.359,3.399h-6.207l9.281-20.689h5.911l9.251,20.689h-6.266L52.224,73.236z
				 M47.613,61.738l-2.66,6.591h5.291L47.613,61.738z"/>
			<path fill="#FFFFFF" d="M85.74,73.945c-2.335,2.305-5.172,3.222-8.305,3.222c-8.128,0-11.291-5.113-11.32-10.729
				c-0.03-5.32,3.546-10.965,11.32-10.965c2.985,0,5.675,1.034,8.01,3.31l-3.606,3.547c-1.478-1.419-3.015-1.803-4.404-1.803
				c-3.99,0-5.557,3.251-5.527,5.941c0.029,2.69,1.448,5.734,5.527,5.734c1.389,0,3.399-0.591,4.877-2.098L85.74,73.945z"/>
			<path fill="#FFFFFF" d="M93.985,55.945v15.724h9.901v4.965H88.133V55.945H93.985z"/>
			<path fill="#FFFFFF" d="M106.458,76.635V55.945h5.822v20.689H106.458z"/>
			<path fill="#FFFFFF" d="M134.978,73.945c-2.335,2.305-5.172,3.222-8.305,3.222c-8.128,0-11.291-5.113-11.32-10.729
				c-0.03-5.32,3.546-10.965,11.32-10.965c2.985,0,5.675,1.034,8.01,3.31l-3.606,3.547c-1.478-1.419-3.015-1.803-4.404-1.803
				c-3.99,0-5.557,3.251-5.527,5.941c0.029,2.69,1.448,5.734,5.527,5.734c1.389,0,3.399-0.591,4.877-2.098L134.978,73.945z"/>
			<path fill="#FFFFFF" d="M155.667,56.3l-8.394,9.783c2.896,3.192,6.236,6.917,9.103,10.197v0.354h-7.241l-5.911-6.887v6.887
				h-5.852V55.945h5.852v6.798c1.773-2.187,3.694-4.611,5.438-6.798h7.005V56.3z"/>
			<path fill="#FFFFFF" d="M177.774,73.236h-9.251l-1.359,3.399h-6.207l9.281-20.689h5.911l9.251,20.689h-6.266L177.774,73.236z
				 M173.163,61.738l-2.66,6.591h5.291L173.163,61.738z"/>
			<path fill="#FFFFFF" d="M206.354,72.408l2.335,2.394l-3.901,3.842l-2.601-2.66c-1.625,0.769-3.458,1.123-5.527,1.123
				c-6.769,0-11.438-4.049-11.438-10.847c0-6.798,4.67-10.818,11.438-10.818c6.798,0,11.438,4.02,11.438,10.818
				C208.098,68.596,207.448,70.694,206.354,72.408z M196.66,60.408c-3.311,0-5.646,2.424-5.646,5.853
				c0,3.605,2.335,5.852,5.646,5.852c3.428,0,5.586-2.188,5.586-5.852C202.246,62.832,200.088,60.408,196.66,60.408z"/>
			<path fill="#FFFFFF" d="M230.383,55.975v11.556c0.03,6.118-3.694,9.547-9.753,9.547s-9.754-3.281-9.754-9.606V55.975h5.823
				v11.497c0,3.251,1.566,4.611,3.931,4.611c2.364,0,3.931-1.418,3.931-4.552V55.975H230.383z"/>
			<path fill="#FFFFFF" d="M234.284,76.635V55.945h5.822v20.689H234.284z M242.53,49.561h-5.705l-2.276,4.759v0.177h4.759
				l3.222-4.699V49.561z"/>
			<path fill="#FFFFFF" d="M258.401,63.039l4.463-7.094h6.591v0.266l-8.217,12.177v8.246h-5.852v-8.246l-7.862-12.207v-0.236h6.591
				L258.401,63.039z"/>
			<path fill="#FFFFFF" d="M289.907,76.665v-7.833h-7.449v7.833h-5.852V55.975h5.852v7.862h7.449v-7.862h5.793v20.689H289.907z"/>
			<path fill="#FFFFFF" d="M314.171,73.236h-9.25l-1.359,3.399h-6.207l9.28-20.689h5.911l9.251,20.689h-6.266L314.171,73.236z
				 M309.561,61.738l-2.659,6.591h5.29L309.561,61.738z"/>
			<path fill="#FFFFFF" d="M334.032,55.945c4.139,0,7.508,1.833,7.508,5.793c0,1.566-0.473,3.192-2.275,4.02
				c1.92,1.035,2.866,2.956,2.866,4.818c0,4.64-4.226,6.029-8.009,6.059h-10.67V55.945H334.032z M329.215,63.837h4.67
				c1.212,0,1.862-0.621,1.862-1.537c0-0.916-0.65-1.625-1.803-1.625h-4.729V63.837z M329.215,72.083h4.937
				c1.478,0,2.187-0.798,2.187-1.951c0-1.123-0.739-1.98-2.187-1.98h-4.937V72.083z"/>
			<path fill="#FFFFFF" d="M351.146,55.945v15.724h9.9v4.965h-15.753V55.945H351.146z"/>
			<path fill="#FFFFFF" d="M377.893,73.236h-9.251l-1.359,3.399h-6.207l9.281-20.689h5.91l9.252,20.689h-6.266L377.893,73.236z
				 M373.282,61.738l-2.66,6.591h5.291L373.282,61.738z"/>
			<path fill="#FFFFFF" d="M403.724,76.635h-16.551V55.945h16.138v4.906h-10.374v2.956h9.783v4.759h-9.783v3.133h10.787V76.635z"/>
			<path fill="#FFFFFF" d="M424.325,64.31l-5.291,6.266h-1.035l-5.172-6.236v12.295h-5.793V55.945h6.118l5.438,7.005l5.438-7.005
				h6.09v20.689h-5.793V64.31z"/>
			<path fill="#FFFFFF" d="M444.658,77.137c-6.769,0-11.497-3.931-11.497-10.847c0-6.798,4.729-10.847,11.497-10.847
				c6.798,0,11.497,3.96,11.497,10.847C456.155,73.206,451.456,77.137,444.658,77.137z M444.658,60.438
				c-3.34,0-5.646,2.423-5.646,5.852c0,3.458,2.335,5.852,5.646,5.852c3.429,0,5.646-2.423,5.646-5.852
				C450.304,62.743,448.087,60.438,444.658,60.438z"/>
			<path fill="#FFFFFF" d="M471.938,61.679c-1.42-1.064-3.045-1.418-4.848-1.418c-1.419,0-2.809,0.443-2.809,1.537
				c0,1.419,1.39,1.626,3.43,1.833c4.107,0.443,8.393,2.099,8.393,6.857c0,4.699-4.433,6.709-9.072,6.739
				c-3.725,0.029-6.385-0.621-9.252-3.636l3.222-3.694c2.04,1.98,4.315,2.335,6.06,2.335c1.921,0,3.25-0.68,3.25-1.833
				c0-1.035-1.182-1.685-3.457-1.892c-4.522-0.414-8.424-1.566-8.424-6.709c0-4.374,4.285-6.266,8.66-6.266
				c3.104,0,5.527,0.709,7.744,2.453L471.938,61.679z"/>
			<path fill="#FFFFFF" d="M491.442,71.049v5.586h-5.852V55.945h10.049c5.557,0,8.307,3.488,8.307,7.537
				c0,4.227-2.779,7.507-8.307,7.566H491.442z M491.442,66.113h4.197c1.627,0,2.453-1.182,2.453-2.542
				c0-1.359-0.855-2.601-2.453-2.601h-4.197V66.113z"/>
			<path fill="#FFFFFF" d="M516.892,77.137c-6.77,0-11.498-3.931-11.498-10.847c0-6.798,4.729-10.847,11.498-10.847
				c6.797,0,11.496,3.96,11.496,10.847C528.388,73.206,523.688,77.137,516.892,77.137z M516.892,60.438
				c-3.34,0-5.646,2.423-5.646,5.852c0,3.458,2.336,5.852,5.646,5.852c3.428,0,5.645-2.423,5.645-5.852
				C522.536,62.743,520.319,60.438,516.892,60.438z"/>
			<path fill="#FFFFFF" d="M550.585,76.635h-6.443l-4.818-6.709h-2.039v6.709h-5.852V55.945h10.107c5.291,0,8.039,3.399,8.039,7.123
				c0,2.542-0.887,4.7-4.373,6.236l5.379,6.976V76.635z M537.284,60.615v4.965h4.314c1.537,0,2.217-1.152,2.217-2.394
				c0-1.3-0.738-2.571-2.275-2.571H537.284z"/>
		</g>
	</g>
	<g>
		<path fill="#9999FF" d="M195.002,91.718c1.172-1.187,2.326-2.379,3.44-3.532c4.103-4.241,7.978-8.25,11.563-10.671
			c1.421-0.961,2.786-1.651,4.094-2.073c-2.25-0.648-4.661-0.111-7.201,1.628c-2.755,1.886-5.563,5.035-8.812,8.68
			c-1.938,2.174-3.94,4.42-6.172,6.677c-1.802,1.826-3.67,3.651-5.503,5.399c-0.178,1.14-0.435,2.348-0.774,3.629
			C188.444,98.474,191.705,95.057,195.002,91.718z"/>
		<path fill="#9999FF" d="M123.179,149.295c0.287-0.729,0.874-1.294,1.61-1.551c6.029-2.118,14.277-9.114,15.311-14.252
			c0.621-3.084,0.779-5.651,0.917-7.912c0.372-6.027,0.665-10.791,8.9-17.33c6.576-5.223,10.915-11.389,14.4-16.34
			c3.186-4.525,6.063-8.613,9.586-9.661c-0.347-0.205-0.713-0.394-1.1-0.564c-5.753-2.51-9.571,2.914-13.994,9.199
			c-3.494,4.966-7.842,11.145-14.442,16.385c-8.162,6.482-8.453,11.205-8.819,17.178c-0.14,2.271-0.299,4.846-0.922,7.943
			c-0.494,2.455-2.655,5.535-5.928,8.451c-2.985,2.658-6.634,4.938-9.518,5.952c-0.671,0.235-1.211,0.753-1.479,1.411
			c-0.267,0.662-0.235,1.404,0.082,2.039c0.081,0.16,8.012,15.959,16.181,28.244c0.424,0.641,1.125,1.047,1.892,1.1
			c0.767,0.057,1.516-0.25,2.027-0.82c0.166-0.186,0.368-0.402,0.599-0.639c-7.431-11.861-15.096-26.438-15.182-26.6
			C122.936,150.836,122.893,150.021,123.179,149.295z"/>
		<path fill="#FFFFFF" d="M205.717,140.932c-0.592-0.879-2.149-3.174-10.912,1.616c-2.432,1.437-7.893,4.276-8.124,4.396
			c-1.315,0.687-2.939,0.176-3.623-1.139c-0.688-1.313-0.182-2.936,1.129-3.625c0.024-0.014,2.407-1.268,7.958-4.307l0.219-0.131
			c2.981-1.764,7.063-4.178,9.952-6.687c1.18-1.024,3.849-3.576,3.164-5.106c-0.061-0.137-0.132-0.265-0.211-0.386
			c-1.111-1.67-4.375-2.132-7.486-0.182c-6.959,5.172-15.367,9.16-15.724,9.328c-1.311,0.62-2.878,0.086-3.538-1.202
			c-0.663-1.291-0.183-2.875,1.084-3.582c0.084-0.044,8.443-4.703,15.123-8.975l0.625-0.463c5.436-4.043,7.719-6.041,6.75-8.168
			c-0.064-0.142-0.137-0.273-0.215-0.395c-1.485-2.232-6.731-1.232-10.429,1.152c-7.311,4.715-14.857,9.315-14.932,9.361
			c-1.26,0.766-2.908,0.361-3.684-0.88c-0.778-1.254-0.4-2.901,0.848-3.687c0.143-0.092,14.498-9.191,27.232-19.209
			c1.889-1.487,3.932-2.939,5.905-4.346c5.199-3.701,11.671-8.304,10.141-10.605c-0.079-0.119-0.176-0.243-0.288-0.369
			c-3.322-3.725-10.417,0.728-21.705,8.504c-1.515,1.046-3.083,2.126-4.681,3.205c-11.87,7.998-23.575,16.688-23.691,16.773
			c-1.08,0.804-2.588,0.684-3.529-0.28c-0.939-0.968-1.021-2.476-0.188-3.536c5.318-6.782,11.613-18.133,8.954-22.127
			c-0.346-0.521-0.867-0.931-1.595-1.249c-1.71-0.743-3.657,1.695-7.7,7.438c-3.684,5.236-8.271,11.752-15.453,17.457
			c-6.36,5.051-6.532,7.856-6.876,13.448c-0.15,2.435-0.322,5.196-1.013,8.644c-0.925,4.593-4.621,8.677-7.56,11.295
			c-2.599,2.313-5.578,4.343-8.386,5.742c2.634,4.896,8.651,15.887,14.34,24.84c3.118-3.502,8.693-8.848,13.953-9.225l1.227-0.09
			c7.752-0.551,14.449-1.029,21.784-3.42c8.542-2.781,16.113-6.141,21.895-9.713c7.242-4.469,8.923-7.539,9.31-8.65
			C206.089,141.488,205.837,141.111,205.717,140.932z"/>
		<path fill="#333333" d="M210.389,137.824c-0.004-0.006-0.029-0.043-0.035-0.049c-1.084-1.633-2.527-2.556-3.972-3.098
			c3.625-3.28,5.841-6.977,4.058-10.954c-0.182-0.405-0.422-0.78-0.666-1.147c-1.1-1.656-2.719-2.787-4.583-3.383
			c2.305-2.613,3.44-5.529,1.814-9.103c-0.182-0.401-0.399-0.78-0.635-1.136c-1.228-1.85-3.123-3.029-5.486-3.459
			c1.127-0.859,2.251-1.725,3.365-2.603c1.788-1.403,3.774-2.819,5.697-4.188c3.722-2.646,7.238-5.148,9.617-7.734
			c4.165-4.532,3.326-8.063,1.887-10.229c-0.22-0.33-0.474-0.654-0.754-0.97c-2.161-2.424-4.983-3.445-8.42-3.057
			c-1.556,0.178-3.236,0.64-5.038,1.394c-4.546,1.898-9.776,5.503-15.311,9.317c-1.506,1.038-3.06,2.107-4.636,3.171
			c-4.434,2.987-8.842,6.071-12.646,8.771c0.666-1.356,1.225-2.646,1.678-3.879c1.986-5.369,1.986-9.589-0.004-12.583
			c-0.924-1.388-2.242-2.463-3.924-3.197c-1.702-0.742-3.234-0.813-4.66-0.391c-3.524,1.05-6.403,5.132-9.589,9.661
			c-3.484,4.953-7.824,11.118-14.4,16.34c-8.234,6.539-8.526,11.301-8.898,17.328c-0.14,2.266-0.296,4.829-0.917,7.912
			c-1.033,5.141-9.283,12.133-15.311,14.252c-0.737,0.26-1.324,0.823-1.61,1.553c-0.287,0.727-0.243,1.543,0.121,2.23
			c0.086,0.166,7.752,14.742,15.183,26.6c0.936,1.498,1.871,2.947,2.785,4.326c0.482,0.727,1.288,1.174,2.161,1.199
			c0.872,0.025,1.699-0.375,2.226-1.07c2.805-3.727,8.666-9.738,12.452-10.016l1.224-0.086c7.768-0.551,15.106-1.074,23.068-3.666
			c18.544-6.045,32.229-14.627,34.715-21.773C211.727,141.857,211.597,139.644,210.389,137.824z M196.459,151.055
			c-5.782,3.57-13.353,6.93-21.895,9.713c-7.335,2.389-14.032,2.867-21.784,3.418l-1.228,0.092
			c-5.259,0.377-10.833,5.721-13.953,9.225c-5.689-8.955-11.708-19.945-14.34-24.84c2.807-1.4,5.786-3.43,8.386-5.742
			c2.938-2.619,6.635-6.7,7.56-11.297c0.692-3.444,0.863-6.209,1.013-8.643c0.345-5.592,0.516-8.398,6.876-13.447
			c7.182-5.705,11.769-12.222,15.454-17.459c4.042-5.743,5.989-8.181,7.699-7.438c0.728,0.319,1.25,0.728,1.595,1.248
			c2.659,3.994-3.637,15.346-8.954,22.128c-0.832,1.06-0.75,2.567,0.188,3.536c0.939,0.964,2.449,1.084,3.529,0.281
			c0.117-0.086,11.822-8.776,23.691-16.772c1.599-1.079,3.167-2.157,4.682-3.205c11.287-7.776,18.381-12.23,21.704-8.504
			c0.112,0.126,0.209,0.25,0.288,0.369c1.532,2.302-4.94,6.905-10.141,10.606c-1.975,1.405-4.018,2.857-5.906,4.345
			c-12.731,10.019-27.085,19.116-27.228,19.21c-1.248,0.785-1.625,2.434-0.848,3.688c0.776,1.241,2.423,1.647,3.684,0.881
			c0.075-0.047,7.622-4.646,14.931-9.362c3.698-2.386,8.944-3.386,10.429-1.153c0.078,0.12,0.151,0.253,0.215,0.395
			c0.969,2.127-1.314,4.125-6.75,8.168l-0.625,0.463c-6.681,4.27-15.042,8.93-15.125,8.975c-1.267,0.707-1.747,2.288-1.084,3.58
			c0.66,1.289,2.227,1.822,3.538,1.204c0.356-0.169,8.766-4.158,15.723-9.329c3.112-1.95,6.377-1.488,7.487,0.182
			c0.079,0.12,0.15,0.25,0.211,0.385c0.686,1.531-1.984,4.084-3.164,5.108c-2.89,2.507-6.971,4.921-9.952,6.683l-0.219,0.133
			c-5.55,3.041-7.933,4.294-7.958,4.307c-1.311,0.691-1.816,2.313-1.129,3.625c0.685,1.313,2.308,1.824,3.623,1.141
			c0.231-0.119,5.692-2.963,8.124-4.396c8.763-4.791,10.32-2.496,10.912-1.618c0.121,0.183,0.371,0.56,0.053,1.474
			C205.381,143.515,203.704,146.587,196.459,151.055z"/>
		<path fill="#9999FF" d="M201.917,49.347c0.405,0.673,1.024,1.391,1.719,2.087c1.724,1.723,3.915,3.307,4.476,3.702
			c1.064,0.753,2.538,0.5,3.291-0.563c0.753-1.065,0.5-2.537-0.566-3.29c-1.623-1.148-4.209-3.262-4.875-4.368
			c-0.674-1.118-2.123-1.478-3.24-0.804C201.605,46.782,201.246,48.232,201.917,49.347z"/>
		<path fill="#9999FF" d="M218.365,48.487c0.075,0.523,0.318,0.981,0.666,1.329c0.509,0.51,1.244,0.779,2.01,0.667
			c1.29-0.188,2.183-1.385,1.996-2.676c-0.413-2.832-0.042-7.583-0.039-7.632c0.102-1.299-0.867-2.436-2.166-2.541
			c-1.299-0.101-2.436,0.868-2.541,2.166C218.272,40.014,217.875,45.125,218.365,48.487z"/>
		<path fill="#9999FF" d="M233.667,47.937c-0.857,0.935-0.818,2.374,0.068,3.263c0.025,0.025,0.051,0.048,0.076,0.072
			c0.962,0.88,2.454,0.815,3.334-0.146c2.997-3.271,4.7-6.488,4.772-6.625c0.604-1.153,0.16-2.576-0.992-3.183
			c-1.152-0.606-2.578-0.163-3.187,0.988C237.725,42.333,236.23,45.14,233.667,47.937z"/>
		<path fill="#9999FF" d="M238.061,70.238c0.449,0.449,1.079,0.717,1.763,0.69c3.565-0.143,6.792-1.391,6.927-1.445
			c1.215-0.474,1.814-1.846,1.338-3.058c-0.475-1.213-1.844-1.813-3.058-1.338c-0.025,0.01-2.659,1.014-5.395,1.122
			c-1.302,0.052-2.316,1.149-2.265,2.453C237.396,69.28,237.657,69.832,238.061,70.238z"/>
		<path fill="#9999FF" d="M235.511,78.027c-1.18,0.557-1.687,1.962-1.131,3.143c0.161,0.341,1.178,2.407,3.033,4.265
			c1.051,1.052,2.372,2.035,3.958,2.6c1.227,0.44,2.577-0.201,3.016-1.427c0.439-1.227-0.202-2.577-1.427-3.016
			c-2.161-0.77-3.844-3.465-4.311-4.438C238.09,77.976,236.689,77.474,235.511,78.027z"/>
	</g>
	<g>
		<g>
			<path fill="#FFFFFF" d="M272.854,130.27H263.6l-7.127-19.256l-6.897,19.256h-9.197l-15.002-40.179h12.416l5.173,14.14
				c0.978,3.047,1.552,6.323,2.127,9.313l7.415-23.452h7.875l7.645,23.452c0.575-3.047,1.322-6.266,2.242-9.6l4.828-13.853h12.416
				L272.854,130.27z"/>
			<path fill="#FFFFFF" d="M300.964,90.091v14.888c2.012-2.587,4.195-3.68,7.587-3.68c5.748,0,11.151,3.736,11.151,13.278v15.749
				h-10.52v-15.691c-0.114-3.219-1.724-4.196-3.851-4.196c-2.069,0-4.368,1.552-4.426,4.886v15.002h-10.634V90.091H300.964z"/>
			<path fill="#FFFFFF" d="M346.604,101.932h9.944v28.395h-9.771l-0.461-3.046c-2.414,2.759-6.207,3.736-9.369,3.563
				c-8.334-0.518-12.99-6.438-12.99-14.715c0-8.392,5.518-14.83,13.795-14.83c4.023,0,6.84,1.38,8.335,3.68L346.604,101.932z
				 M334.476,116.129c0,3.967,2.529,6.208,5.689,6.208c3.564,0,5.863-2.874,5.863-6.208c0-3.793-2.127-6.266-5.863-6.266
				C337.005,109.863,334.476,112.163,334.476,116.129z"/>
			<path fill="#FFFFFF" d="M375.804,93.885v8.219h6.381v8.105h-6.438v9.312c0.057,2.012,1.207,2.759,2.816,2.759
				c1.034,0,2.241-0.402,3.104-0.977l2.299,7.816c-2.414,1.38-5.23,1.897-8.162,1.897c-5.633,0-10.691-2.587-10.519-11.496v-9.312
				h-4.54v-8.105h4.54v-7.069L375.804,93.885z"/>
			<path fill="#FFFFFF" d="M389.024,119.635c4.312,2.817,7.76,3.047,10.06,3.162c1.896,0,2.874-0.46,2.874-1.379
				c0-0.92-0.92-1.381-2.989-1.553c-5.519-0.172-12.186-2.414-12.186-9.312c0-6.841,6.438-9.312,13.105-9.312
				c4.599,0,8.852,1.379,11.61,3.448l-4.482,6.323c-1.553-0.978-4.829-1.782-7.128-1.725c-1.495,0-2.529,0.345-2.529,1.379
				c0,0.518,0.402,1.322,2.127,1.38c5.921,0.173,13.048,1.839,13.048,9.37c0,7.012-6.381,9.656-13.221,9.656
				c-4.943,0-10.519-1.38-13.737-3.736L389.024,119.635z"/>
			<path fill="#FFFFFF" d="M445.413,123.717h-17.991l-2.644,6.609h-12.071l18.049-40.235h11.496l17.991,40.235h-12.186
				L445.413,123.717z M436.446,101.357l-5.174,12.817h10.289L436.446,101.357z"/>
			<path fill="#FFFFFF" d="M473.063,142.168h-10.576v-40.236h9.427l0.459,3.047c2.415-2.76,6.209-3.736,9.37-3.564
				c8.334,0.518,12.99,5.748,12.99,14.715c0,8.68-5.518,14.83-13.795,14.83c-3.621,0-6.323-1.149-7.875-3.047V142.168z
				 M484.214,116.129c0-3.966-2.529-6.207-5.69-6.207c-3.563,0-5.69,2.932-5.69,5.92c0,3.449,1.954,6.553,5.69,6.553
				C481.685,122.395,484.214,120.096,484.214,116.129z"/>
			<path fill="#FFFFFF" d="M510.023,142.168h-10.577v-40.236h9.427l0.46,3.047c2.414-2.76,6.208-3.736,9.369-3.564
				c8.335,0.518,12.991,5.748,12.991,14.715c0,8.68-5.519,14.83-13.796,14.83c-3.621,0-6.322-1.149-7.874-3.047V142.168z
				 M521.174,116.129c0-3.966-2.529-6.207-5.69-6.207c-3.563,0-5.69,2.932-5.69,5.92c0,3.449,1.954,6.553,5.69,6.553
				C518.645,122.395,521.174,120.096,521.174,116.129z"/>
		</g>
	</g>
</g>
</svg>
